<svg id="Layer_1" data-name="Layer 1" xmlns="http://www.w3.org/2000/svg" viewBox="0 0 612 187.79"><defs><style>.cls-1{fill:#fff;}.cls-2{fill:#4386c7;}</style></defs><path class="cls-1" d="M149.58,60.63l-2.16,8-1.22.22a36.19,36.19,0,0,0-20.82-6.15q-12.84,0-19.74,7.2T98.75,91q0,14,6.89,21.33t19.47,7.36a40.06,40.06,0,0,0,22.58-6.7l1.35.55-.95,8.35a57.87,57.87,0,0,1-23.93,5.28q-17.43,0-27-9.18t-9.6-26.22q0-17.48,10-26.92t28.39-9.46Q139.57,55.35,149.58,60.63Z"/><path class="cls-1" d="M245.83,126.36h-11l.81-21.22-.13-10.55-24.33-.33-21.91.33-.13,9.78.54,22H178.78l.68-21.22-.68-49.24h11.09l-.41,31,22.71.33,23.25-.33-.54-31H246l-.54,48.47Z"/><path class="cls-1" d="M405.63,126.36H362.91l.68-21.22-.68-49.24H374l-.68,48.47.4,14.62h32l.82.77Z"/><path class="cls-1" d="M594.35,126.36H583L538.25,70h-.81l-.14,33.2.41,23.19H527.57l.67-20.89-.4-49.57h11.35l44.62,56.39h.94l-.13-55.95,10.27-.66-.81,50Z"/><polygon class="cls-1" points="26.83 93.94 26.83 93.93 42.24 93.82 57.38 94.04 58.33 87.23 57.52 86.46 43.19 86.79 26.96 86.57 27.23 63.49 44.4 63.27 64.82 63.6 65.63 56.78 65.09 55.9 16.28 55.9 16.8 93.94 26.83 93.94"/><polygon class="cls-1" points="65.09 118.66 44.27 119.1 27.1 118.99 27.1 118.99 16.52 118.99 16.28 126.36 64.95 126.36 65.76 119.54 65.09 118.66"/><polygon class="cls-1" points="295.18 93.93 295.18 93.93 310.59 93.82 325.73 94.04 326.68 87.23 325.87 86.46 311.54 86.79 295.31 86.57 295.58 63.49 312.75 63.27 333.17 63.6 333.98 56.78 333.44 55.9 284.63 55.9 285.16 93.93 295.18 93.93"/><polygon class="cls-1" points="333.44 118.66 312.62 119.1 296.33 119 284.87 119 284.63 126.36 333.3 126.36 334.11 119.54 333.44 118.66"/><path class="cls-1" d="M451.84,63.06a41.53,41.53,0,0,1,6.92-.56c6.07,0,11.06,1.12,15,3.31l7.58-5.71q-8.62-4.85-21.67-4.86a57.46,57.46,0,0,0-12.92,1.35Z"/><path class="cls-1" d="M484,80.17a46.13,46.13,0,0,1,1.23,11.12q0,28.59-27,28.58-26.35,0-26.36-29.24c0-7.66,1.53-13.73,4.52-18.26l-5.87-7.31q-9.72,9.42-9.73,26.67,0,17,9.6,26.27t27.17,9.23q18.66,0,28.8-9.78t10.14-27.69A40,40,0,0,0,493.22,73Z"/><path class="cls-1" d="M91.76,151.86H86.68v-1.22H98.62v1.22H93.53v14.92H91.76Z"/><path class="cls-1" d="M109.81,158.73H102.1v8.05h-1.77V150.64h1.77v6.87h7.71v-6.87h1.77v16.14h-1.77Z"/><path class="cls-1" d="M114.67,150.64h9.79v1.22h-8v5.88h7.49V159h-7.49v6.6h8.26v1.22h-10Z"/><path class="cls-1" d="M145.57,161.31c-.25,3.69-2.32,5.75-5.86,5.75-4,0-6.3-2.56-6.3-8.35s2.26-8.34,6.3-8.34,5.66,2.33,5.66,5h-1.76a3.54,3.54,0,0,0-3.9-3.75c-2.82,0-4.53,1.9-4.53,7.12s1.71,7.12,4.53,7.12c2.49,0,3.9-1.74,4.09-4.52Z"/><path class="cls-1" d="M154.05,150.37c4,0,6.3,2.55,6.3,8.34s-2.26,8.35-6.3,8.35-6.3-2.56-6.3-8.35S150,150.37,154.05,150.37Zm0,15.46c2.82,0,4.53-1.89,4.53-7.12s-1.71-7.12-4.53-7.12-4.53,1.9-4.53,7.12S151.23,165.83,154.05,165.83Z"/><path class="cls-1" d="M163.45,150.64h3.07L171.27,165h0l4.76-14.34H179v16.14h-1.77V152h-.06L172,166.78h-1.66L165.27,152h-.05v14.78h-1.77Z"/><path class="cls-1" d="M182.24,150.64h5.33c3.82,0,5.42,1.83,5.42,4.57,0,2.48-1.52,4.56-6,4.56h-3v7h-1.77Zm1.77,7.91h3c2.35,0,4.2-.86,4.2-3.34s-1.49-3.35-4.2-3.35h-3Z"/><path class="cls-1" d="M195.5,150.64h1.77v14.92h8.18v1.22H195.5Z"/><path class="cls-1" d="M207.28,150.64h9.78v1.22h-8v5.88h7.49V159H209v6.6h8.27v1.22h-10Z"/><path class="cls-1" d="M223.25,151.86h-5.09v-1.22H230.1v1.22H225v14.92h-1.77Z"/><path class="cls-1" d="M231.82,150.64h9.78v1.22h-8v5.88h7.49V159h-7.49v6.6h8.27v1.22h-10Z"/><path class="cls-1" d="M262.71,161.31c-.25,3.69-2.32,5.75-5.86,5.75-4,0-6.3-2.56-6.3-8.35s2.27-8.34,6.3-8.34,5.67,2.33,5.67,5h-1.77a3.54,3.54,0,0,0-3.9-3.75c-2.82,0-4.53,1.9-4.53,7.12s1.71,7.12,4.53,7.12c2.49,0,3.9-1.74,4.09-4.52Z"/><path class="cls-1" d="M271.19,150.37c4,0,6.3,2.55,6.3,8.34s-2.26,8.35-6.3,8.35-6.3-2.56-6.3-8.35S267.16,150.37,271.19,150.37Zm0,15.46c2.82,0,4.54-1.89,4.54-7.12s-1.72-7.12-4.54-7.12-4.53,1.9-4.53,7.12S268.38,165.83,271.19,165.83Z"/><path class="cls-1" d="M280.42,150.64h2.38l7.54,14.06h.06V150.64h1.77v16.14h-2.38l-7.54-14.06h-.06v14.06h-1.77Z"/><path class="cls-1" d="M299,151.86h-5.09v-1.22h11.94v1.22h-5.08v14.92H299Z"/><path class="cls-1" d="M307.53,150.64h5.89c3.29,0,5.11,1.54,5.11,4.05a3.83,3.83,0,0,1-3.56,4.09v0c2.46.19,3.29,1.34,3.37,3.83l.05,1.76a3.11,3.11,0,0,0,.83,2.37h-2.07a4.16,4.16,0,0,1-.53-2.26l-.05-1.35c-.11-2.85-.75-3.76-3.92-3.76H309.3v7.37h-1.77Zm1.77,7.55h3c2.79,0,4.42-1,4.42-3.16,0-2-1-3.17-4.23-3.17H309.3Z"/><path class="cls-1" d="M327.49,150.37c4,0,6.3,2.55,6.3,8.34s-2.27,8.35-6.3,8.35-6.3-2.56-6.3-8.35S323.45,150.37,327.49,150.37Zm0,15.46c2.81,0,4.53-1.89,4.53-7.12s-1.72-7.12-4.53-7.12-4.54,1.9-4.54,7.12S324.67,165.83,327.49,165.83Z"/><path class="cls-1" d="M336.72,150.64h1.76v14.92h8.18v1.22h-9.94Z"/><path class="cls-1" d="M355.12,150.64H361c3.28,0,5.11,1.54,5.11,4.05a3.83,3.83,0,0,1-3.57,4.09v0c2.46.19,3.29,1.34,3.38,3.83l.05,1.76a3.11,3.11,0,0,0,.83,2.37h-2.07a4.08,4.08,0,0,1-.53-2.26l0-1.35c-.11-2.85-.75-3.76-3.93-3.76h-3.34v7.37h-1.77Zm1.77,7.55h3c2.79,0,4.42-1,4.42-3.16,0-2-1-3.17-4.23-3.17h-3.23Z"/><path class="cls-1" d="M375.07,150.37c4,0,6.3,2.55,6.3,8.34s-2.26,8.35-6.3,8.35-6.3-2.56-6.3-8.35S371,150.37,375.07,150.37Zm0,15.46c2.82,0,4.53-1.89,4.53-7.12s-1.71-7.12-4.53-7.12-4.53,1.9-4.53,7.12S372.25,165.83,375.07,165.83Z"/><path class="cls-1" d="M390.44,150.37c4,0,6.3,2.55,6.3,8.34s-2.27,8.35-6.3,8.35-6.3-2.56-6.3-8.35S386.4,150.37,390.44,150.37Zm0,15.46c2.82,0,4.53-1.89,4.53-7.12s-1.71-7.12-4.53-7.12-4.54,1.9-4.54,7.12S387.62,165.83,390.44,165.83Z"/><path class="cls-1" d="M399.83,150.64h3.07L407.65,165h.06l4.75-14.34h2.9v16.14h-1.77V152h0l-5.11,14.78h-1.66L401.66,152h-.06v14.78h-1.77Z"/><path class="cls-1" d="M433.91,154.78c0-2-1.14-3.19-3.54-3.19s-3.73,1.29-3.73,2.89c0,4.82,9.56,2.17,9.56,7.85,0,3.12-2.38,4.73-6,4.73s-5.75-1.63-5.75-4.8v-.47h1.77v.61c0,2.06,1.33,3.43,3.93,3.43s4.25-1,4.25-3.27c0-4.8-9.56-2.06-9.56-7.92,0-2.53,2-4.27,5.44-4.27,3.68,0,5.37,1.53,5.37,4.41Z"/><path class="cls-1" d="M444.66,150.37c4,0,6.3,2.55,6.3,8.34s-2.27,8.35-6.3,8.35-6.3-2.56-6.3-8.35S440.62,150.37,444.66,150.37Zm0,15.46c2.81,0,4.53-1.89,4.53-7.12s-1.72-7.12-4.53-7.12-4.54,1.9-4.54,7.12S441.84,165.83,444.66,165.83Z"/><path class="cls-1" d="M453.89,150.64h1.76v14.92h8.18v1.22h-9.94Z"/><path class="cls-1" d="M465.38,150.64h1.77v11.6c0,2.42,1.27,3.59,3.87,3.59s3.87-1.17,3.87-3.59v-11.6h1.77v11.62c0,3.39-2,4.8-5.64,4.8s-5.64-1.41-5.64-4.8Z"/><path class="cls-1" d="M483.18,151.86h-5.09v-1.22H490v1.22H485v14.92h-1.77Z"/><path class="cls-1" d="M491.86,150.64h1.76v16.14h-1.76Z"/><path class="cls-1" d="M503,150.37c4,0,6.3,2.55,6.3,8.34s-2.27,8.35-6.3,8.35-6.31-2.56-6.31-8.35S498.93,150.37,503,150.37Zm0,15.46c2.81,0,4.53-1.89,4.53-7.12s-1.72-7.12-4.53-7.12-4.54,1.9-4.54,7.12S500.15,165.83,503,165.83Z"/><path class="cls-1" d="M512.2,150.64h2.37l7.54,14.06h.06V150.64h1.77v16.14h-2.38L514,152.72H514v14.06H512.2Z"/><rect class="cls-1" x="16.15" y="160.09" width="50.56" height="1.57"/><rect class="cls-1" x="545.29" y="160.09" width="50.56" height="1.57"/><circle class="cls-2" cx="459.75" cy="88.7" r="9.42"/><circle class="cls-2" cx="533.1" cy="30.15" r="9.42"/><circle class="cls-2" cx="413.09" cy="31.72" r="9.42"/><circle class="cls-2" cx="368.68" cy="41.48" r="9.42"/><rect class="cls-2" x="371.14" y="34.25" width="42.52" height="4.71" transform="translate(2.06 90.91) rotate(-13.25)"/><rect class="cls-2" x="435.58" y="24.33" width="4.71" height="71.76" transform="translate(53.63 278.65) rotate(-37.44)"/><rect class="cls-2" x="449.5" y="57.07" width="93.85" height="4.71" transform="translate(71.34 322.62) rotate(-38.59)"/></svg>