<svg id="Layer_1" data-name="Layer 1" xmlns="http://www.w3.org/2000/svg" viewBox="0 0 1516 347.78"><defs><style>.cls-1,.cls-2{fill:#fff;}.cls-1{fill-rule:evenodd;}</style></defs><path class="cls-1" d="M1473.72,60.1a19.52,19.52,0,0,1-19.34-19.35,19.35,19.35,0,1,1,38.69,0,19.51,19.51,0,0,1-19.35,19.35Zm0,2.93a22.29,22.29,0,1,0-22.27-22.28A22.27,22.27,0,0,0,1473.72,63Zm3.52-21.7c4.69,0,8.21-1.76,8.21-6.45a6.15,6.15,0,0,0-2.93-5.28c-1.76-1.18-4.1-1.18-6.45-1.18h-10.55V53.06h2.93V41.33h5.86l7,11.73h3.51l-7.62-11.73ZM1468.45,39V30.19h7c3.51,0,6.44.58,6.44,4.69,0,4.69-5.27,4.1-8.79,4.1Z"/><rect class="cls-2" x="52" y="72.77" width="83.87" height="218.76"/><path class="cls-2" d="M411.33,260.63c-17.46-20-28.47-47.13-28.37-78.49.07-19.68,8-50.26,30.61-76.07V72.77H341V227.44L296.17,72.77H174.41V291.52h66.87V134.05L287.51,290H455C439.1,288.86,413.16,262.51,411.33,260.63Z"/><path class="cls-2" d="M457.23,290H455A13.83,13.83,0,0,0,457.23,290Z"/><path class="cls-2" d="M1273.49,72.77h-65.72l-27.31,120.85L1149.74,72.77H1023.36V209L971.6,73.14H859L806.11,216c-7.55-17.35-38.53-28-38.53-28,47.6-14.36,56.75-48.22,46.85-79.85-12.18-38.87-98.36-35-98.36-35l-134.32-.21,13.43,36.48s-51.27-12.08-83,7.56-43.1,48.75-32.5,80.85c11.22,33.94,39.3,38.54,46.85,38.54s31.74-10.58,31.74-10.58l-17.38-53.65,71-17.57,27.27,93.89s-8.69,22.3-82.36,41.51h123.1v-80h21.41c25.44,0,27.69,21.91,27.69,21.91V290H860.52l16.62-46.8h70.28L964,291.52h131.85v-166l47.44,166h66.15l49.63-169.62V291.52h72.54V72.77ZM679.85,170.62V120s54.56-9.06,54.56,21.92C734.41,141.91,740.86,176.54,679.85,170.62Zm226,20.4H890.74l24.94-68,24.94,68H905.9"/><path class="cls-2" d="M1440.7,289.66H1392V276.28l33.21-8L1392,260.3V246.89h48.68v8.3h-38.32L1440.7,264v8.61l-38.32,8.76h38.32Z"/><path class="cls-2" d="M1440.7,233.33H1392v-8.94h48.68Z"/><path class="cls-2" d="M1422.81,182.58l3-8.67q8,2,11.84,6.63a17.75,17.75,0,0,1,3.86,11.77,18.24,18.24,0,0,1-6.62,14.5q-6.63,5.67-18.11,5.68-12.16,0-18.88-5.71a18.76,18.76,0,0,1-6.73-15,17.49,17.49,0,0,1,5.28-13.2,19.88,19.88,0,0,1,9-4.53l2.32,8.85a10.57,10.57,0,0,0-6,3.28,8.81,8.81,0,0,0-2.19,6.06,9.71,9.71,0,0,0,3.88,8q3.88,3.06,12.58,3.06,9.24,0,13.15-3a9.44,9.44,0,0,0,3.92-7.85,8.45,8.45,0,0,0-2.49-6.13C1429,184.56,1426.37,183.32,1422.81,182.58Z"/><path class="cls-2" d="M1440.7,161.26H1392V142.44q0-7.11,1.31-10.32A10.49,10.49,0,0,1,1398,127a15.07,15.07,0,0,1,7.67-1.93,13.77,13.77,0,0,1,9,2.93q3.57,2.92,4.5,8.76a21,21,0,0,1,4.09-4.79,54.64,54.64,0,0,1,7.9-5.09l9.49-5.41v10.69l-10.59,6.47a70.41,70.41,0,0,0-7.15,4.71,6.9,6.9,0,0,0-2,2.69,13.64,13.64,0,0,0-.55,4.5v1.82h20.32Zm-28.09-8.94V145.7q0-6.44-.6-8a4.88,4.88,0,0,0-2.06-2.51,6.83,6.83,0,0,0-3.65-.9,6.26,6.26,0,0,0-4,1.19,5.35,5.35,0,0,0-1.9,3.37c-.11.73-.17,2.9-.17,6.53v7Z"/><path class="cls-2" d="M1416.66,113.47a33.63,33.63,0,0,1-12.48-2,23.26,23.26,0,0,1-6.68-4.12,17.42,17.42,0,0,1-4.38-5.73,22.46,22.46,0,0,1-1.93-9.55q0-9.78,6.68-15.66t18.56-5.88q11.79,0,18.45,5.83t6.65,15.59q0,9.88-6.62,15.71T1416.66,113.47Zm-.33-9.21q8.26,0,12.54-3.48a11.23,11.23,0,0,0,0-17.59q-4.23-3.43-12.7-3.43t-12.49,3.34a11.61,11.61,0,0,0,0,17.77Q1407.93,104.26,1416.33,104.26Z"/></svg>